<svg viewBox="0 0 340 340" xmlns="http://www.w3.org/2000/svg">
    <path d="M156.7 286.7c-22.72-10.64-43.23-20.03-61.63-30.94-5.1-3.1-10.45-8-14.75-13.6-8.4-10.95-11.7-15.65-15.7-22.4-3.4-5.8-4.1-9.7-2-11.65 1.4-1.35 3.05-1.15 7.8.8 30.48 13.56 53.38 29.9 84.55 42.45 9.4 3.7 17.3 5.8 20.3 5.5 5.6-.55 19.55-6.95 33-15.2 13.93-8.639 25.3-14.33 38.2-21.95.95-.6 2.8-1.35 4.05-1.65 2.05-.6 2.5-.55 4.35.4 2.55 1.3 3.1 2.85 3.1 9 0 6.75-.75 10.45-2.95 15.2-2.55 5.45-8.1 10.75-17.65 17-17.29 10.89-21.46 13.25-48.05 26.05-5.668 2.273-6.11 3.28-16.31 3.23-6.5 0-14.07-1.219-16.31-2.24"/>
    <path d="M289.8 277c-.8-.25-1.75-.7-2.1-1-1.3-1.05-3.6-5.75-4.2-8.4-.9-4.4-.5-26.25.95-48.25 1-14.9 1.2-26 .5-28.85-.7-3.1-2-5.55-4.1-7.8-1.35-1.45-2.4-3.95-2.4-5.75 0-.45 1.65-2.2 3.65-3.9 4.3-3.75 6.7-6.7 7.1-8.95.25-1.4 0-2-1.8-4.15-3.1-3.7-9.3-6.5-23.2-10.5-15.62-4.728-30.99-9.562-46.75-14.45-10.65-3.25-16.65-5.85-19.9-8.65-5.7-4.95-11.75-8.35-17.15-9.6-8.45-2-19.35-.65-27.95 3.5-9.3 4.45-12.85 7.1-14.3 10.7-2.15 5.35 1.5 10.25 11.9 15.95 4.15 2.3 4.85 2.45 18.15 3.6 15.35 1.3 24.5 2.7 30.75 4.75 22.38 4.888 44.45 10.54 63 17.35.5.35 1.35 1.4 1.85 2.3 0 0 .283 2.249-1.35 3.7-25.17 16.18-50.87 30.92-74.75 44.3-7.15 3.9-12.4 5.35-17.7 4.95-4.55-.4-9.2-1.75-12.45-3.65-52.51-30.4-101.7-58.63-148-85.05-2.5-2.1-2.65-2.35-2.65-4.55.05-1.3.45-3.05.9-3.9 1-1.85 5.25-5.3 8.85-7.3 45.32-29.59 90.69-50.99 135.9-74 3.09-1.957 10.6-3.9 15.6-3.95 8.1-.05 10.9.95 30.5 10.65 47.58 27.39 90.12 50.03 131.2 74.8 2.55 1.8 4.6 4.4 4.6 5.85 0 1-3.85 4-6.65 5.2-13.25 5.7-23.55 11.5-25.9 14.6-4.85 6.35-3.9 11.3 4.55 23.95 1.65 2.5 2.5 4.55 3.4 8.1.75 3.25.85 6.4.75 28.15-.05 13.5-.3 28.6-.6 33.65-.45 8.15-.65 9.45-1.75 11.75-3.1 6.35-6.85 11.4-10.25 13.6-2 1.3-6.05 1.9-8.2 1.25"/>
</svg>
